<?xml version="1.0" encoding="UTF-8"?>
<svg width="512px" height="512px" viewBox="0 0 512 512" version="1.1" xmlns="http://www.w3.org/2000/svg">
    <title>Shield Guarantee</title>
    <g stroke="none" stroke-width="1" fill="none" fill-rule="evenodd">
        <path d="M466.5,83.7l-192-80c-4.7-2-10.1-2-14.8,0l-192,80C56.6,87.7,48,100.2,48,114.1v149.1c0,84.8,64.5,156.2,149.3,164.3 c5.7,0.5,11.5,0.9,17.1,0.9c5.5,0,11-0.3,16.4-0.9C315.5,419.4,380,348,380,263.2V114.1C380,100.2,371.4,87.7,360.5,83.7z" fill="#5e2a64" fill-rule="nonzero"></path>
        <path d="M256,172.6c-36.8,0-66.5,29.7-66.5,66.5c0,36.8,29.7,66.5,66.5,66.5s66.5-29.7,66.5-66.5 C322.5,202.3,292.8,172.6,256,172.6z M288.8,241.4l-35.6,38c-2.3,2.5-5.5,3.9-8.9,3.9c-3,0-6-1.1-8.3-3.2l-21.1-19.1 c-5.1-4.6-5.5-12.5-0.8-17.6c4.6-5.1,12.5-5.5,17.6-0.8l12.7,11.5l27.5-29.3c4.6-5.1,12.5-5.5,17.6-0.8 C293.1,228.4,293.4,236.3,288.8,241.4z" fill="#e83e8c" fill-rule="nonzero"></path>
    </g>
</svg>
