<?xml version="1.0" encoding="UTF-8"?>
<svg width="512px" height="512px" viewBox="0 0 512 512" version="1.1" xmlns="http://www.w3.org/2000/svg">
    <title>Segredos da Obsessão Masculina</title>
    <g stroke="none" stroke-width="1" fill="none" fill-rule="evenodd">
        <path d="M429.9,95.6c-40.4-42.1-106-42.1-146.4,0L256,124.1l-27.5-28.6c-40.5-42.1-106-42.1-146.4,0c-45.5,47.3-45.5,124.1,0,171.4 L256,448l173.9-181.1C475.4,219.7,475.4,142.9,429.9,95.6z" fill="#e83e8c" fill-rule="nonzero"></path>
        <path d="M256,448c0,0,182-189.3,182-315.2C438,39.5,357.5-8,256,75.2C154.5-8,74,39.5,74,132.8C74,258.7,256,448,256,448z" stroke="#5e2a64" stroke-width="16"></path>
        <text x="256" y="220" font-family="Montserrat, sans-serif" font-size="38" fill="#5e2a64" text-anchor="middle">Segredos da</text>
        <text x="256" y="268" font-family="Montserrat, sans-serif" font-size="38" font-weight="bold" fill="#5e2a64" text-anchor="middle">Obsessão</text>
    </g>
</svg>
